<svg xmlns="http://www.w3.org/2000/svg" xmlns:xlink="http://www.w3.org/1999/xlink" width="126.893798828125" height="126.78410339355469" viewBox="0 0 126.893798828125 126.78410339355469" fill="none">
<g  clip-path="url(#clip-path-JVIt_rVUeiC9rdjFhqAyF)">
<path d="M63.6169 9.63804e-05C28.5029 -0.0693036 0.0186092 28.3361 9.17742e-06 63.3958C-0.0184908 97.9871 27.9347 126.876 63.6112 126.784C98.7496 126.693 126.751 98.3574 126.894 63.4518C126.918 28.5497 98.5157 0.0690964 63.6169 9.63804e-05ZM63.4017 122.372C30.7827 122.36 4.33151 95.9173 4.39791 63.3071C4.46461 30.5725 31.0538 4.4445 63.4034 4.4258C95.8892 4.407 122.491 30.7415 122.464 63.4601C122.436 96.0148 96.0003 122.384 63.4017 122.372Z"   fill="#168C3E" >
</path>
<path d="M26.6997 64.4501C27.2138 84.2253 43.6089 100.204 63.4107 100.085C83.5093 100.28 100.629 83.5354 100.177 62.5521C99.7567 43.0405 83.6065 26.1207 62.3339 26.6887C42.5949 27.2158 26.1579 43.6119 26.6998 64.4501L26.6997 64.4501ZM33.5689 81.197C36.9074 81.1086 40.0896 81.4374 43.2637 81.8732C48.1385 82.5423 52.8229 83.9974 57.5286 85.3589C63.3742 87.0503 69.1726 88.9147 75.1752 90.0162C78.5663 90.6385 81.9327 90.7436 85.2841 89.7913C85.5398 89.7186 85.8168 89.7212 86.1376 89.6823C71.3714 103.298 44.8776 100.709 33.5688 81.1971L33.5689 81.197ZM88.2683 85.6784C83.7572 86.5909 79.269 86.5759 74.7579 85.7862C68.6876 84.7237 62.7427 83.11 56.7493 81.7082C50.4068 80.2247 44.0354 78.9504 37.4649 79.3014C36.2431 79.3667 35.0257 79.5135 33.806 79.6185C33.4677 79.6476 33.1226 79.7088 32.7905 79.67C32.4333 79.6284 32.3131 79.295 32.2781 78.9886C32.2335 78.5966 32.5781 78.7006 32.782 78.6801C39.4879 78.0075 46.1661 77.8858 52.825 79.2686C59.0846 80.5685 65.2857 82.1253 71.545 83.4185C75.5163 84.2389 79.5057 84.9589 83.5991 84.6158C86.7469 84.352 89.7625 83.6183 92.7658 82.0161C91.844 84.2098 90.382 85.2508 88.2682 85.6783L88.2683 85.6784ZM93.5759 79.5512C88.416 81.4896 83.1378 81.686 77.7724 80.8365C71.2839 79.8091 64.8847 78.3049 58.4179 77.1615C53.145 76.2292 47.8544 75.3993 42.4721 75.8438C39.0763 76.1243 35.7003 76.5763 32.4308 77.6038C32.0918 77.7103 31.7068 78.0291 31.5075 77.4596C31.2995 76.8654 31.8914 76.9922 32.1256 76.9102C33.0523 76.5856 33.9903 76.315 34.9339 76.0723C38.9603 75.1746 46.2918 74.1742 55.8605 75.5647C56.3525 75.6397 56.8443 75.7161 57.3346 75.8012C58.3128 75.971 59.2879 76.1581 60.2643 76.3378C61.3025 76.5373 62.1941 76.7001 62.9549 76.8306C64.9941 77.2157 67.0329 77.6047 69.0745 77.9765C73.7324 78.8247 78.3761 79.822 83.1499 79.7098C87.2975 79.6124 91.3601 79.0476 95.3211 77.2226C94.9915 78.3091 94.7308 79.1172 93.576 79.5511L93.5759 79.5512ZM28.8778 58.8541C30.5508 47.3492 36.4955 38.6718 46.5634 32.9254C53.3277 29.0646 60.7004 27.742 68.3783 28.964C81.8046 31.1009 91.0805 38.6696 96.088 51.243C98.8513 58.1812 99.0375 65.3982 97.0479 72.6315C97.023 72.7221 96.9742 72.8061 96.9073 72.9608C94.9922 71.8068 93.0895 70.6895 91.2216 69.517C90.664 69.167 90.2162 69.1355 89.622 69.4244C88.5838 69.9292 87.4848 70.3075 86.4359 70.7921C85.8839 71.047 85.6516 70.8701 85.4348 70.3651C85.1129 69.6158 84.6592 68.9191 84.3792 68.1569C84.1154 67.4388 83.7804 67.3459 83.0916 67.6119C78.6496 69.3271 74.1922 71.0027 69.741 72.6944C69.5596 72.7634 69.3901 72.8632 68.934 73.0858C71.5238 73.4758 73.8272 73.7798 76.113 74.1834C77.4481 74.4191 78.6619 74.3936 79.7287 73.4322C80.0984 73.0989 80.3574 73.343 80.4941 73.7098C80.7369 74.3612 81.2671 74.5076 81.8696 74.5396C83.4374 74.6231 85.005 74.714 86.5739 74.7761C87.2953 74.8047 87.7848 74.2777 88.2159 73.8392C89.4763 72.557 90.7169 72.4265 92.3516 73.2608C93.4664 73.8297 94.6391 74.7029 96.0858 74.258C96.2805 74.1982 96.4604 74.314 96.4137 74.5115C96.3179 74.9172 96.377 75.4369 95.8092 75.5784C94.9512 75.7923 94.0976 76.0297 93.2318 76.2056C89.2147 77.0216 85.163 76.9361 81.1058 76.6304C76.5777 76.2893 72.1276 75.465 67.7016 74.4786C63.4171 73.5236 59.1394 72.524 54.7573 72.0986C54.7573 72.0986 40.6827 70.5508 31.2759 76.1567C31.0355 76.1451 30.8763 75.9602 30.7306 75.5559C28.7758 70.1336 28.0476 64.5657 28.878 58.8541L28.8778 58.8541Z"   fill="#168C3E" >
</path>
<path d="M117.518 57.3598C117.251 57.3182 116.972 57.2561 116.709 57.2907C116.169 57.3619 116.099 57.1481 116.127 56.6554C116.166 55.9837 116.546 55.4376 116.666 54.8078C116.725 54.5035 116.715 54.191 116.435 53.9677C116.217 53.7943 116.041 53.9158 115.914 54.0797C115.183 55.0269 114.059 55.0585 113.038 55.3309C112.311 55.8261 111.493 55.965 110.634 55.9612C111.375 55.5259 112.132 55.1559 112.988 55.0513C113.844 54.5424 113.788 53.8718 113.314 53.062C112.929 53.4431 112.478 53.6693 112.033 53.9085C111.585 54.1495 111.134 54.3911 110.715 54.6788C110.213 55.0243 109.862 54.9102 109.516 54.4472C108.946 53.6851 108.305 52.9737 107.766 52.191C107.384 51.6355 107.138 51.7803 106.92 52.252C106.471 53.2235 106.314 54.6444 107.521 55.5309C108.282 56.0898 108.99 56.7362 109.588 57.4913C110.009 58.024 110.127 58.5765 109.607 59.0239C109.005 59.5414 108.61 59.1388 108.24 58.5798C107.4 57.3077 106.507 56.0698 105.619 54.8294C105.443 54.5828 105.172 54.1006 104.883 54.6338C104.562 55.2268 104.384 55.9257 104.888 56.555C105.504 57.3228 106.134 58.0791 106.765 58.8343C106.994 59.1085 107.499 59.371 107.238 59.7201C107.038 59.9877 106.5 60.0316 106.089 59.9252C105.684 59.8204 105.336 59.6055 105.146 59.2096C104.977 58.8589 104.827 58.4994 104.626 58.0474C103.983 58.9318 103.72 59.8434 103.4 60.7217C103.226 61.1976 103.529 61.5506 103.944 61.6745C104.719 61.9061 105.508 62.174 106.338 62.0289C107.096 61.8965 107.921 61.3982 108.588 61.6925C109.295 62.0051 109.328 63.0098 109.608 63.7256C109.864 64.3802 110.164 64.2504 110.563 63.922C110.815 63.7138 110.903 63.4237 110.963 63.1199C110.72 62.5729 110.476 62.0261 110.233 61.4788C110.148 61.2858 110.084 61.0581 110.31 60.9519C110.519 60.8534 110.715 61.0175 110.791 61.2032C110.991 61.6953 111.154 62.2027 111.332 62.704C111.475 62.9731 111.613 63.2452 111.763 63.5105C112.226 64.3287 112.994 64.3509 113.518 63.5672C113.852 63.0691 113.811 62.5458 113.648 62.006C113.577 61.767 113.285 61.5051 113.575 61.2793C113.796 61.1078 114.102 61.2128 114.36 61.2998C114.969 61.5052 115.567 61.7446 116.182 61.9306C116.742 62.1 117.397 62.2624 117.753 61.6635C118.146 61.003 117.733 60.4675 117.258 59.9576C116.848 59.519 116.154 59.3554 115.93 58.6758C116.445 58.5558 116.76 58.8999 117.145 58.9863C117.649 59.0995 118.039 58.9545 118.156 58.4142C118.271 57.8854 118.141 57.4566 117.518 57.3599L117.518 57.3598ZM112.062 61.1256C111.856 61.2977 111.631 61.2723 111.415 61.1181C110.777 60.661 110.897 60.0587 111.082 59.1465C111.501 59.7592 111.753 60.1451 112.023 60.5181C112.172 60.7222 112.309 60.9188 112.062 61.1256ZM112.875 57.5545C112.584 57.534 112.404 57.304 112.347 57.0386C112.334 56.9763 112.572 56.8104 112.715 56.7752C113.054 56.6916 113.066 56.9775 113.122 57.198C113.119 57.3752 113.065 57.5679 112.875 57.5545ZM115.149 56.1567C115.334 56.1208 115.476 56.2245 115.416 56.5279C115.362 56.7256 115.262 57.0012 114.953 57.0458C114.697 57.0826 114.626 56.8718 114.617 56.6495C114.602 56.2788 114.889 56.2075 115.15 56.1568L115.149 56.1567ZM115.425 60.1555C114.996 60.4853 114.506 60.2662 114.04 60.032C114.685 60.1768 115.017 59.8274 115.258 59.3086C115.563 59.6179 115.644 59.9874 115.425 60.1555Z"   fill="#168C3E" >
</path>
<path d="M69.7169 22.6009C70.1053 22.9614 70.4433 22.9 70.8135 22.7273C71.4291 22.4403 72.0882 22.2344 72.6717 21.8959C73.0705 21.6646 73.2186 21.6591 73.406 22.1058C73.9543 23.4123 73.9618 23.3902 75.1166 22.6041C75.6291 22.2554 76.1392 21.9151 76.4456 21.3636C76.7249 20.8608 76.9928 20.7038 77.4014 21.2478C77.5261 21.4137 77.8647 21.3395 77.947 21.6404C76.5528 22.9334 74.793 23.7201 73.2944 24.8898C75.4698 24.7797 77.2921 23.8383 78.9193 22.5388C80.1308 21.5713 81.25 20.5237 82.981 20.935C83.045 20.9502 83.1171 20.9357 83.1851 20.9299C83.7111 20.8857 84.1596 20.6986 84.1306 20.0901C84.1037 19.5257 83.6598 19.4049 83.1734 19.4072C82.6818 19.4095 82.1902 19.4077 81.6985 19.4077C81.6855 19.3132 81.6723 19.2186 81.6592 19.1241C82.1361 18.7638 82.8162 18.7278 83.2047 18.2231C83.3575 18.0248 83.4746 17.8184 83.372 17.5706C83.2702 17.3247 83.0664 17.1828 82.7998 17.2649C81.8143 17.5687 80.7946 17.6149 79.7797 17.7241C79.1678 17.79 79.0384 18.1624 79.439 18.65C79.635 18.8885 80.1585 18.9002 80.0003 19.3754C79.8474 19.8353 79.3668 19.6727 79.0358 19.7755C78.6827 19.8852 78.2997 19.924 77.928 19.7922C77.8761 19.4611 78.0635 19.2048 78.178 18.9277C78.5188 18.1023 78.2562 17.5818 77.3902 17.3662C77.2141 17.3229 77.0228 17.2723 77.0073 17.096C76.9871 16.8655 77.2171 16.6768 77.3826 16.6657C78.1901 16.6114 79.0475 15.543 79.8233 16.8631C80.0401 17.232 80.647 16.7492 81.0334 16.5941C81.6172 16.3597 81.4114 17.4754 81.9967 17.0903C82.7221 16.613 83.6019 16.5508 84.3757 16.1991C84.7183 16.0434 85.1387 15.9865 85.1145 15.4925C85.0874 14.9382 84.6239 15.0325 84.2708 14.982C83.8034 14.915 83.5081 14.7829 83.9572 14.2935C84.8647 13.3043 84.3287 12.542 83.5655 11.7414C83.2071 11.3654 82.7908 11.3793 82.4403 11.8491C82.089 12.3199 81.897 12.862 81.6658 13.389C81.2994 14.2242 80.59 14.7939 79.9831 15.423C79.5969 15.8235 79.295 14.9764 78.8208 15.1075C78.5948 15.17 78.3487 15.1667 78.111 15.1779C76.7144 15.2435 75.3981 15.8156 73.9827 15.8108C73.6083 15.8095 72.9872 15.3613 72.8548 15.9899C72.7444 16.5143 73.2203 16.9821 73.6053 17.3736C74.0083 17.7833 74.4256 17.2694 75.0247 17.3949C73.8399 19.7912 71.7126 21.1285 69.7167 22.6008L69.7169 22.6009ZM73.9361 20.8285C74.5918 20.1463 75.2379 19.4548 75.9026 18.7817C76.0733 18.6088 76.3111 18.5156 76.5531 18.6641C76.6201 18.7053 76.6448 18.8156 76.6627 18.8474C76.646 19.4545 74.827 21.2818 74.2748 21.2905C74.1499 21.2924 74.0026 21.2434 73.9034 21.168C73.7698 21.0663 73.83 20.939 73.9361 20.8285Z"   fill="#168C3E" >
</path>
<path d="M21.2086 59.16C21.5365 58.8439 21.2939 58.5332 21.1852 58.2232C20.3408 57.6909 19.4967 57.1586 18.502 56.5315C19.1229 56.2529 19.7266 56.1988 19.8376 55.6292C19.943 55.0878 19.0181 54.7565 18.5635 55.1493C18.2697 55.4032 18.2292 55.8954 17.7817 56.0058C17.5 55.7197 17.8303 55.5767 17.8929 55.3809C18.0072 55.0233 18.4876 54.6977 18.0638 54.2924C17.7464 53.9888 17.4498 53.5054 16.875 53.8173C16.674 53.9264 16.5373 53.8866 16.5233 53.6696C16.5084 53.4369 16.5076 53.1791 16.594 52.971C16.6789 52.7663 16.8716 52.883 17.015 52.9783C18.3101 53.8387 19.6003 54.7067 20.9038 55.5543C21.3785 55.863 21.4286 56.2178 21.1372 56.6685C20.9795 56.9126 20.5392 57.0604 20.6865 57.393C20.8553 57.7743 21.297 57.5221 21.6096 57.5963C22.3268 57.2251 23.0257 56.7752 23.0365 55.8865C23.0478 54.9708 22.1909 54.7743 21.5621 54.3858C20.0856 53.4737 18.5845 52.5771 17.2842 51.4274C16.5985 50.8213 16.0765 50.348 15.2719 51.4862C15.3348 51.0133 15.3656 50.7784 15.3972 50.5437C15.497 49.8023 15.6364 49.0634 15.6828 48.3186C15.7134 47.8277 15.3907 47.4097 14.9237 47.3595C14.3917 47.3023 14.3631 47.854 14.2654 48.2262C14.1877 48.522 14.1948 48.8401 14.1638 49.1536C13.5308 49.0005 14.0107 48.2583 13.6339 48.2345C12.2655 48.1483 12.3062 47.1566 12.2086 46.2221C12.1894 46.0386 12.0979 45.8923 11.9094 45.8559C11.6988 45.8152 11.447 45.8379 11.4147 46.0818C11.3196 46.8022 10.9609 46.5831 10.4867 46.46C9.72321 46.2619 9.17151 46.772 8.79381 47.3327C8.40991 47.9027 8.99221 48.2062 9.36461 48.4326C10.2192 48.9521 10.2979 49.701 10.1164 50.5536C10.0245 50.9855 9.88411 51.407 9.77411 51.8354C9.72411 52.0308 9.65441 52.2723 9.88021 52.3754C10.0111 52.4351 10.2332 52.4011 10.3666 52.3256C10.5993 52.1938 10.7892 51.9887 11.0083 51.8297C11.3425 51.587 11.4609 50.8993 11.9813 51.1056C12.5877 51.3459 12.1666 51.9496 12.1896 52.3901C12.2015 52.6181 12.0762 52.8499 12.0495 53.0841C12.0138 53.3981 11.5565 53.7723 11.9319 53.9923C12.3779 54.2535 12.6301 53.7357 12.9042 53.4539C12.9979 53.3575 13.051 53.2224 13.1409 53.1213C13.3039 52.9378 13.363 52.5408 13.7295 52.721C14.0097 52.8588 14.2048 53.1116 14.1651 53.4683C14.1427 53.6705 14.1202 53.8727 14.0977 54.0748C14.1096 54.1139 14.11 54.1536 14.1204 54.1928L14.1033 54.2178C14.1008 54.1702 14.1005 54.1224 14.0977 54.0748C14.0934 54.1291 14.0937 54.1834 14.0898 54.2377L14.085 54.2447C14.085 54.2447 14.0831 54.3213 14.0802 54.4332C14.0055 55.5759 13.9899 56.7193 13.9977 57.863C13.9601 59.501 13.9244 61.1871 13.9244 61.7111C13.9244 61.7232 13.9276 61.7311 13.9278 61.7428C13.8359 62.2591 13.9142 62.7878 13.8746 63.308C13.8382 63.7853 14.0543 63.9453 14.5419 63.9621C15.9419 64.0103 16.2354 63.6156 15.9896 62.2142C15.5151 59.508 14.827 56.8266 14.8884 54.0486C14.8936 53.8148 14.7101 53.4271 15.1159 53.382C15.3981 53.3506 15.5694 53.6217 15.6745 53.8983C15.8912 54.4679 16.0051 55.1363 16.3818 55.5744C17.5374 56.9181 18.8855 58.0705 20.4074 58.995C20.628 59.129 20.8729 59.4832 21.2086 59.1598L21.2086 59.16Z"   fill="#168C3E" >
</path>
<path d="M23.5171 32.8368C23.5805 32.9139 23.6709 32.9742 23.7588 33.0251C25.8493 34.2345 27.6072 35.8293 29.054 37.7473C29.4386 38.2572 29.836 38.6602 30.4124 38.9003C31.1506 38.1917 31.2801 37.3119 30.5841 36.038C29.5687 34.1794 28.6233 32.2442 26.7513 31.024C26.1452 30.6289 25.9108 30.1582 26.5821 29.5694C27.061 29.1494 27.1247 28.58 26.9069 27.7795C27.9055 28.5954 28.7434 29.2835 29.5856 29.9659C29.8515 30.1813 29.8293 30.4383 29.6937 30.6961C29.3962 31.2622 29.4016 31.8679 29.4158 32.4812C29.4469 33.8278 29.7925 34.0541 31.011 33.5115C31.0809 33.4002 31.134 33.2725 31.2236 33.18C32.7029 31.6513 33.5391 30.0018 32.4007 27.8722C32.0429 27.2031 32.6965 27.2345 33.0504 27.2354C33.8936 27.2375 34.5614 28.2428 34.4365 29.2693C34.3619 29.8824 34.1575 30.4889 34.3166 31.2494C35.261 30.1461 35.4694 28.9729 35.4224 27.728C35.3715 26.3763 34.4057 25.7245 33.1334 26.1929C32.5421 26.4106 32.0064 26.6047 31.4457 26.0739C31.1424 25.7869 30.7927 25.8782 30.4886 26.2381C30.0207 26.7919 29.1069 27.0612 28.6948 26.8389C27.4684 26.1771 26.4364 25.2839 26.8981 23.5217C27.1063 22.7271 27.0389 21.8399 27.3214 21.0239C27.3923 20.819 27.4877 20.5081 27.2212 20.3856C27.0026 20.2851 26.6851 20.3908 26.5981 20.6154C26.267 21.4694 25.4969 21.8767 24.8493 22.4005C24.2266 22.904 24.1279 23.4864 24.3664 24.2138C24.5388 24.739 24.7464 25.2613 25.0992 25.6594C25.7357 26.3778 25.8068 27.1105 25.3489 27.904C24.8224 28.8166 25.0113 29.6867 25.4912 30.5139C25.8977 31.2146 26.3233 31.9014 26.97 32.4439C28.0967 33.389 28.5157 34.8047 29.2724 36.0001C28.5949 35.5674 28.1089 34.9932 27.6217 34.3826C26.7798 33.3272 26.1471 32.0864 25.0192 31.2674C24.2472 30.7068 22.8866 30.8241 22.5026 31.6603C22.1363 32.4576 23.1798 32.427 23.5168 32.8369L23.5171 32.8368ZM31.6508 28.3322C31.9656 28.3995 31.8649 28.7841 31.8958 29.0384C32.0315 30.1565 31.8893 31.1707 30.6659 31.9457C30.6314 30.7886 30.6484 29.8165 31.0551 28.9039C31.1671 28.6524 31.2976 28.2567 31.6507 28.3321L31.6508 28.3322ZM30.6545 27.4576C30.6186 27.292 30.5523 26.9923 30.8895 27.0702C31.1296 27.1258 31.3071 27.3523 31.1639 27.6091C30.9684 27.9593 30.8088 28.381 30.2953 28.4723C30.1679 28.006 30.7423 27.8624 30.6545 27.4575L30.6545 27.4576ZM25.8837 24.1374C25.5903 24.1943 25.2824 23.735 25.3027 23.3347C25.3258 22.8771 25.6599 22.5919 26.0749 22.5382C26.4722 22.4868 26.2452 22.8653 26.3272 23.0821C26.0997 23.4011 26.3852 24.0402 25.8838 24.1374L25.8837 24.1374Z"   fill="#168C3E" >
</path>
<path d="M48.9401 13.6056C49.2987 13.1965 49.645 12.6905 50.3709 12.7711C49.9439 13.3205 49.758 14.156 48.9934 14.2683C48.3984 14.3558 48.3323 14.6957 48.3479 15.0879C48.364 15.4877 48.4104 15.8291 47.9518 16.0022C47.4345 16.1975 47.4347 15.74 47.264 15.4823C47.0858 15.2131 46.8347 14.9954 46.4984 15.103C46.0715 15.2395 46.2831 15.5991 46.2953 15.8849C46.3376 16.8703 46.2541 17.8407 46.0568 18.8121C45.7704 20.2222 45.9559 21.5926 46.6359 22.8705C46.9296 23.4225 47.4742 23.611 47.8424 23.0842C48.7248 21.8219 49.86 20.6392 49.6942 18.901C49.675 18.6999 49.6379 18.4791 49.9111 18.4051C50.125 18.3471 50.3186 18.3934 50.4695 18.5591C50.653 18.7604 50.8395 18.9607 51.0044 19.1769C51.7291 20.1269 52.5181 21.0137 53.4258 21.7967C53.8125 22.1304 54.2276 22.1601 54.6652 22.0107C55.0524 21.8785 55.1706 21.4535 55.1172 21.1642C54.8879 19.9238 54.62 18.682 53.9011 17.5355C53.5162 17.9214 53.4076 18.2526 53.4937 18.6502C53.5483 18.9022 53.7315 19.2306 53.4218 19.3735C53.1262 19.5101 52.95 19.1551 52.7626 18.9829C50.7748 17.1563 50.743 17.7884 52.636 15.9897C53.0175 15.6272 52.8923 15.4103 52.6256 15.1688C52.1827 14.7681 51.8256 15.0579 51.4719 15.3596C51.0913 15.6842 50.8229 16.2173 50.1477 16.1543C50.3688 15.5193 51.2502 14.977 50.9161 14.5256C50.3381 13.7447 50.9661 13.4468 51.2648 13.1107C51.7184 12.6002 52.1411 12.0756 52.5152 11.5099C52.9248 10.8906 52.6399 10.3028 51.8923 10.2238C51.3975 10.1715 50.9452 10.3204 50.5537 10.6271C50.0657 11.0095 49.4807 11.2046 48.9455 11.4935C47.7029 12.1641 46.4273 12.7274 44.9528 12.8959C46.2225 14.6733 47.8435 14.8563 48.9399 13.6053L48.9401 13.6056ZM49.0326 17.5972C48.7521 17.9096 47.7136 17.9328 48.7301 18.7612C49.0504 19.0224 48.2524 19.7115 47.6776 20.0204C47.3463 19.2786 47.3663 18.5415 47.4335 17.801C47.5163 16.8882 48.2741 16.8745 48.9111 16.7252C49.0703 16.6879 49.2464 16.7884 49.2953 16.982C49.363 17.2494 49.1957 17.4155 49.0326 17.5972Z"   fill="#168C3E" >
</path>
<path d="M95.5883 36.302C96.858 36.5158 98.0631 36.1423 99.2506 35.7212C99.6196 35.5903 99.973 35.398 100.413 35.6377C101.545 36.2549 102.712 36.8069 103.85 37.4132C104.327 37.6672 104.82 37.9016 105.257 37.4777C105.76 36.9904 105.257 36.5515 105.058 36.1094C104.856 35.6611 104.475 35.5621 104.048 35.6204C103.347 35.7163 102.809 35.36 102.244 35.0448C101.799 34.797 101.93 34.6418 102.273 34.4261C102.978 33.9828 103.785 33.8262 104.56 33.6007C106.598 33.0079 107.267 30.4459 105.745 28.8713C105.579 29.2462 105.458 29.6392 105.148 29.9236C103.743 31.2102 102.25 32.3777 100.603 33.3455C99.961 33.7229 99.3836 33.6303 98.7971 33.2453C98.0468 32.7526 97.439 32.1222 96.9167 31.396C96.7232 31.127 96.4739 30.7566 96.1899 31.336C95.662 32.413 96.1148 33.5844 97.2161 33.9838C97.5334 34.0988 97.8745 34.1634 98.0407 34.5119C96.4061 35.4289 95.4884 35.1492 93.6479 33.1806C93.2483 34.7622 94.0088 36.0362 95.5885 36.3022L95.5883 36.302Z"   fill="#168C3E" >
</path>
<path d="M50.8909 105.785C50.4354 105.555 50.0824 105.696 49.7558 106.119C49.1369 106.921 48.4556 107.674 47.7067 108.557C47.7067 107.298 47.6651 106.208 47.7228 105.123C47.7557 104.5 47.2988 104.505 46.9547 104.368C46.5036 104.189 46.4706 104.598 46.3668 104.864C45.9223 106.003 45.4793 107.142 45.0535 108.288C44.9672 108.521 44.7829 108.833 45.1696 108.98C45.5061 109.108 45.7127 109.007 45.8415 108.61C46.0769 107.884 46.3984 107.186 46.684 106.476C46.8148 107.341 46.822 108.174 46.8112 109.007C46.807 109.325 46.7948 109.6 47.1827 109.736C47.5876 109.878 47.7243 109.603 47.9205 109.369C48.4707 108.714 49.0309 108.068 49.5872 107.419C49.4562 108.23 49.1901 108.955 48.9107 109.674C48.7972 109.966 48.6415 110.24 49.0728 110.416C49.5111 110.596 49.6067 110.272 49.7141 109.992C50.1283 108.914 50.5438 107.835 50.9275 106.746C51.0353 106.44 51.4283 106.057 50.8908 105.785L50.8909 105.785Z"   fill="#168C3E" >
</path>
<path d="M100.568 39.2569C100.366 38.2362 100.425 37.1598 99.9878 36.1133C99.6151 36.2476 99.5808 36.4949 99.4768 36.7021C98.8734 37.9053 98.9276 39.2883 98.4248 40.5172C98.0497 41.4334 98.4665 41.9584 99.3046 42.2207C100.047 42.4532 100.809 42.6261 101.566 42.8106C101.809 42.8698 102.118 43.1228 102.296 42.7962C102.453 42.5079 102.144 42.2887 101.963 42.1174C101.135 41.333 100.786 40.3651 100.568 39.257L100.568 39.2569Z"   fill="#168C3E" >
</path>
<path d="M102.285 95.4969C102.021 95.4337 101.753 95.3406 101.488 95.3439C100.752 95.3531 100.506 95.0842 100.51 94.2941C100.514 93.3087 99.3086 92.7807 98.4678 93.3285C97.7216 93.8145 97.1776 94.5262 96.5618 95.1572C96.3172 95.4077 96.3183 95.5947 96.5775 95.8334C97.6002 96.7756 98.6099 97.732 99.628 98.6794C99.8541 98.8898 100.064 98.9315 100.311 98.6606C100.589 98.3546 100.404 98.1839 100.191 97.9928C100.039 97.857 99.8666 97.7373 99.7449 97.5785C99.5377 97.3082 98.9514 97.1947 99.1634 96.7684C99.3884 96.3164 99.8406 96.0079 100.429 96.1C101 96.1892 101.57 96.276 102.185 96.3706C102.566 96.4571 102.861 96.1778 102.917 95.8684C102.998 95.4156 102.538 95.5578 102.284 95.4969L102.285 95.4969ZM98.381 96.2581C98.0174 96.0411 97.6007 95.797 97.4885 95.3545C97.4166 95.071 98.8144 93.9832 99.1444 94.0075C99.5468 94.0371 99.6918 94.328 99.8039 94.5415C99.7981 94.9717 98.5804 96.3771 98.381 96.2581Z"   fill="#168C3E" >
</path>
<path d="M20.604 82.7835C21.7203 82.5573 22.5543 81.753 22.6751 80.8007C22.823 79.6357 22.3017 78.6617 21.2896 78.2125C20.216 77.7358 18.7526 78.0906 17.9396 79.0245C17.3602 79.6898 17.2378 81.0218 17.7693 81.8011C18.066 82.2361 18.3448 82.6098 18.1452 83.1678C18.0772 83.3578 18.0916 83.5831 18.4009 83.5959C18.5845 83.6035 18.7544 83.5902 18.7586 83.3562C18.7701 82.7043 19.1589 82.767 19.636 82.9342C19.9336 82.8886 20.2719 82.8508 20.6041 82.7835L20.604 82.7835ZM19.1535 81.785C19.045 81.4427 19.5009 80.3329 18.4237 81.244C18.3808 81.2804 18.1566 80.8219 18.1583 80.5429C18.1633 79.724 19.0018 79.0001 20.1439 78.822C20.9298 78.6995 21.6838 79.1901 21.8935 80.0191C22.1351 80.9731 21.5099 81.4556 20.7898 81.8316C20.4958 81.9852 20.1509 82.0413 19.8914 82.1223C19.5564 82.0864 19.2626 82.1289 19.1535 81.7849L19.1535 81.785Z"   fill="#168C3E" >
</path>
<path d="M58.671 107.387C58.1763 107.295 58.2048 107.663 58.155 107.94C58.0052 108.772 57.8762 109.607 57.6863 110.76C57.0669 109.44 56.5496 108.411 56.1039 107.352C55.9283 106.934 55.6315 106.899 55.2973 106.9C54.8864 106.901 54.9684 107.278 54.9266 107.512C54.7183 108.681 54.5424 109.856 54.3403 111.026C54.2898 111.318 54.0854 111.617 54.5679 111.746C55.1172 111.893 55.1058 111.472 55.1657 111.162C55.3262 110.333 55.459 109.499 55.6449 108.424C56.2459 109.71 56.7639 110.761 57.2234 111.836C57.3736 112.188 57.5747 112.278 57.9129 112.291C58.3857 112.31 58.3552 111.948 58.4032 111.67C58.6107 110.465 58.7842 109.255 59.007 108.054C59.0722 107.703 59.1108 107.469 58.671 107.387Z"   fill="#168C3E" >
</path>
<path d="M84.9049 103.861C84.805 103.644 84.7106 103.338 84.3106 103.554C83.9763 103.735 84.0089 103.927 84.1365 104.204C84.5002 104.996 84.8505 105.793 85.206 106.589C85.1506 106.646 85.0954 106.703 85.0401 106.76C84.036 106.141 83.0211 105.538 82.0339 104.893C81.7168 104.686 81.4663 104.734 81.2018 104.91C80.8711 105.131 81.0886 105.394 81.1905 105.625C81.6946 106.772 82.2119 107.913 82.7189 109.059C82.8471 109.349 82.9305 109.618 83.3735 109.466C83.9108 109.281 83.5924 109.002 83.4928 108.764C83.1441 107.929 82.7756 107.102 82.3265 106.071C83.5355 106.822 84.5621 107.448 85.5749 108.096C85.9044 108.307 86.2187 108.297 86.5275 108.116C86.7635 107.978 86.6479 107.758 86.5669 107.575C86.018 106.335 85.472 105.093 84.9046 103.861L84.9049 103.861Z"   fill="#168C3E" >
</path>
<path d="M27.0878 88.1023C26.8559 87.7239 26.663 87.8137 26.3608 88.0051C25.5851 88.4963 24.7861 88.9507 23.7688 89.555C24.3274 88.336 24.7635 87.385 25.199 86.4339C25.3779 86.0436 25.7046 85.6353 25.2472 85.2479C24.8425 84.9052 24.5688 85.3469 24.2799 85.513C23.2793 86.0881 22.2937 86.6898 21.3124 87.2977C21.0564 87.4564 20.5985 87.5442 20.9319 88.0356C21.2125 88.4491 21.4726 88.1468 21.7086 88.0111C22.4636 87.577 23.2042 87.1179 23.9502 86.6685C23.9945 86.7221 24.0389 86.7757 24.0831 86.8292C23.6031 87.8699 23.1326 88.9151 22.637 89.9483C22.4886 90.2578 22.4713 90.5151 22.6948 90.7874C22.9996 91.1588 23.2531 90.8559 23.4893 90.7165C24.5995 90.0613 25.7048 89.3968 26.7944 88.7082C26.9716 88.5962 27.3346 88.5052 27.0876 88.1023L27.0878 88.1023Z"   fill="#168C3E" >
</path>
<path d="M28.7691 94.6256C29.1702 94.1765 28.4032 93.9132 28.235 93.5266C28.1954 93.4356 28.1227 93.3538 28.0501 93.2837C27.831 93.0725 27.6935 92.6347 27.2599 93.0129C26.8483 93.3718 27.3052 93.5304 27.4246 93.7561C27.5537 94 27.9641 94.1515 27.6533 94.5211C27.3395 94.8943 26.9872 94.7809 26.6593 94.5598C26.0362 94.1397 25.5664 93.6009 25.6914 92.79C25.8328 91.8731 26.5487 91.4775 27.306 91.1191C27.9236 90.8268 28.3966 91.1487 28.7868 91.4974C29.1802 91.8491 29.5755 92.3291 29.3139 92.9276C29.1531 93.2958 29.0519 93.6135 29.4931 93.7463C29.9703 93.8901 30.0011 93.4017 30.1163 93.122C30.2018 92.9143 30.2138 92.651 30.1805 92.424C30.0026 91.2093 28.6964 90.2187 27.4374 90.3208C26.0493 90.4333 24.8743 91.6115 24.878 92.8869C24.8814 94.0374 25.6052 94.9915 26.6985 95.4677C27.7137 95.9101 28.2695 95.1848 28.7692 94.6255L28.7691 94.6256Z"   fill="#168C3E" >
</path>
<path d="M97.8107 99.8841C97.3818 100.269 96.8574 100.558 96.4702 100.977C95.9459 101.545 95.6848 101.232 95.2835 100.83C94.7273 100.273 95.234 100.098 95.5472 99.8327C95.9087 99.5263 96.2846 99.2365 96.6421 98.9256C96.8086 98.7808 97.0515 98.6469 96.7816 98.3607C96.543 98.1075 96.3813 98.1081 96.1232 98.3572C95.7339 98.7329 95.2794 99.0399 94.873 99.3993C94.5688 99.6683 94.3793 99.7171 94.0512 99.3609C93.668 98.9451 93.5729 98.714 94.0846 98.3354C94.6481 97.9184 95.2488 97.524 95.7066 96.9035C95.623 96.7945 95.5557 96.6827 95.4656 96.5937C95.2631 96.3938 95.0976 96.5426 94.9383 96.6709C94.2249 97.2457 93.5204 97.8323 92.7964 98.3936C92.4767 98.6415 92.4698 98.8346 92.7396 99.1376C93.6199 100.126 94.4827 101.131 95.3334 102.145C95.5632 102.419 95.7595 102.581 96.0862 102.308C96.8405 101.676 97.5899 101.038 98.3593 100.425C98.5986 100.234 98.6393 100.09 98.4515 99.845C98.2009 99.5186 98.0435 99.6752 97.8107 99.8842L97.8107 99.8841Z"   fill="#168C3E" >
</path>
<path d="M103.567 90.719C103.14 90.9956 102.751 91.3305 102.345 91.6405C102.079 91.8442 101.774 91.9398 101.503 91.7162C101.167 91.4392 101.313 91.0969 101.5 90.7956C101.763 90.3748 102.091 90.0203 102.648 90.1282C103.067 90.2093 103.377 90.0725 103.361 89.6613C103.346 89.2445 102.916 89.3214 102.63 89.3041C101.745 89.2506 100.942 89.9237 100.664 90.9035C100.49 91.5182 100.564 92.073 101.096 92.4607C101.624 92.8463 102.194 92.7498 102.716 92.4146C103.03 92.2134 103.308 91.958 103.609 91.7357C104.024 91.4289 104.523 91.015 104.938 91.5639C105.353 92.1116 104.88 92.6008 104.471 92.9553C104.207 93.1844 103.881 93.4411 103.429 93.2948C102.982 93.2604 102.714 93.3802 102.705 93.6518C102.691 94.0882 103.061 94.0935 103.335 94.1539C104.31 94.3689 105.357 93.5362 105.71 92.3663C105.912 91.694 105.779 91.1379 105.271 90.7123C104.731 90.2611 104.12 90.3607 103.567 90.7188L103.567 90.719Z"   fill="#168C3E" >
</path>
<path d="M34.3825 96.5058C33.7559 95.7662 33.4696 96.7917 33.0912 97.0812C32.707 97.3752 32.5011 97.4397 32.1213 97.0738C31.023 96.0159 31.0029 96.0339 31.9954 94.8373C32.1441 94.6582 32.3878 94.5121 32.1044 94.2573C31.8925 94.0667 31.6984 93.8983 31.4166 94.185C30.4186 95.2002 29.4085 96.2035 28.4013 97.2097C28.2416 97.3693 28.1386 97.5422 28.3322 97.7311C28.4461 97.8423 28.5994 97.9133 28.7175 97.9908C29.2019 97.8017 29.4729 97.4279 29.7431 97.0993C30.1835 96.5639 30.4903 96.5251 31.0076 97.0481C32.039 98.0906 32.0725 98.0576 31.0497 99.1157C31.0024 99.1645 30.9503 99.2088 30.8991 99.2536C30.6525 99.4691 30.4472 99.6878 30.7527 100.014C31.0751 100.358 31.2842 100.107 31.5038 99.8834C32.2185 99.1547 32.9664 98.4551 33.6343 97.6858C33.9441 97.3291 34.8626 97.0726 34.3825 96.5058Z"   fill="#168C3E" >
</path>
<path d="M37.1456 98.593C36.7322 98.2822 36.4454 98.5975 36.1411 98.7776C35.0042 99.4504 33.8731 100.133 32.745 100.82C32.5481 100.94 32.1105 100.968 32.396 101.36C32.5847 101.62 32.8711 101.737 33.1893 101.477C33.3448 101.35 33.5379 101.271 33.7082 101.16C33.9577 100.999 34.1982 100.748 34.4827 101.1C34.8242 101.521 35.5658 101.561 35.6294 102.174C35.5583 102.47 35.5435 102.684 35.4572 102.862C35.2448 103.303 35.2679 103.72 35.7635 103.85C36.362 104.007 36.2338 103.391 36.3187 103.109C36.6689 101.943 36.9385 100.753 37.2787 99.5839C37.3881 99.208 37.5403 98.8896 37.1457 98.593L37.1456 98.593ZM35.9039 101.215C35.538 101.01 34.947 100.796 35.0168 100.495C35.1402 99.9632 35.857 99.93 36.3601 99.3748C36.3757 100.231 36.1004 100.695 35.9039 101.215Z"   fill="#168C3E" >
</path>
<path d="M79.3056 105.471C78.829 105.629 79.0131 105.937 79.0934 106.209C79.3236 106.99 79.574 107.765 79.8192 108.542C80.0916 109.404 79.7349 109.924 78.9142 110.163C78.1342 110.389 77.7818 109.906 77.5687 109.273C77.2879 108.437 77.0313 107.593 76.7705 106.751C76.6787 106.455 76.5393 106.25 76.1883 106.387C75.919 106.493 75.8451 106.694 75.9343 106.964C76.2756 107.995 76.5534 109.052 76.9755 110.049C77.3784 111.001 78.2302 111.104 79.142 110.877C80.2878 110.592 80.7268 110.081 80.7117 108.847C80.6008 107.981 80.2401 106.956 79.8854 105.928C79.785 105.638 79.784 105.312 79.3057 105.471L79.3056 105.471Z"   fill="#168C3E" >
</path>
<path d="M68.8086 107.675C68.4871 107.712 68.4407 107.911 68.4594 108.181C68.4921 108.657 68.5109 109.134 68.5355 109.611L68.5735 109.611C68.5735 110.02 68.5667 110.429 68.5749 110.837C68.5907 111.624 68.2263 112.069 67.4264 112.083C66.6936 112.096 66.2855 111.737 66.246 110.979C66.1997 110.094 66.129 109.21 66.078 108.326C66.0605 108.022 66.0023 107.801 65.6187 107.804C65.2051 107.807 65.1999 108.076 65.2198 108.355C65.2946 109.408 65.3367 110.466 65.4768 111.511C65.5965 112.403 66.2443 112.727 67.0913 112.743C68.0459 112.762 69.0648 112.748 69.3323 111.615C69.6068 110.452 69.3928 109.24 69.3083 108.051C69.2887 107.776 69.1055 107.641 68.8088 107.675L68.8086 107.675Z"   fill="#168C3E" >
</path>
<path d="M64.0846 108.089C63.9523 107.67 63.5835 107.821 63.3054 107.805C62.5569 107.761 61.8067 107.73 61.0571 107.729C60.7942 107.729 60.3426 107.542 60.3523 108.034C60.3607 108.466 60.7913 108.364 61.0778 108.384C61.6373 108.422 62.1981 108.44 62.9648 108.476C61.9323 109.602 61.0614 110.55 60.1939 111.5C59.9626 111.753 59.6927 112.025 59.8378 112.397C59.981 112.764 60.3584 112.647 60.6492 112.66C61.5688 112.7 62.4893 112.722 63.4093 112.752C63.6602 112.76 63.9375 112.74 63.9567 112.436C63.977 112.113 63.6887 112.101 63.4456 112.09C62.7047 112.055 61.9639 112.021 60.9112 111.973C62.0128 110.789 62.8945 109.85 63.7637 108.9C63.9667 108.678 64.1944 108.437 64.0845 108.089L64.0846 108.089Z"   fill="#168C3E" >
</path>
<path d="M91.9576 100.047C91.8988 99.7947 92.0192 99.3143 91.5306 99.4216C91.1318 99.5092 91.1547 99.8376 91.22 100.232C91.4067 101.363 91.8886 102.436 91.9097 103.686C91.7027 103.573 91.5509 103.509 91.4203 103.416C90.5662 102.805 89.7027 102.206 88.8721 101.564C88.5283 101.299 88.2767 101.455 88.0746 101.667C87.7427 102.017 88.1772 102.13 88.3502 102.253C89.5102 103.076 90.69 103.87 91.8569 104.684C92.1321 104.876 92.3757 104.968 92.6848 104.739C92.9668 104.53 92.9114 104.294 92.8477 104.016C92.5455 102.694 92.2653 101.367 91.9576 100.047Z"   fill="#168C3E" >
</path>
<path d="M111.346 80.786C110.262 80.5566 109.588 79.8663 109.039 78.9549C108.747 78.4692 108.482 77.938 107.95 77.5329C107.314 78.8724 108.806 79.32 109.028 80.3843C108.308 80.5253 107.643 80.6502 106.981 80.7869C106.58 80.8699 106.357 81.2007 106.427 81.5346C106.531 82.0365 106.895 81.6591 107.144 81.6241C108.46 81.4392 109.767 80.7786 111.099 81.5923C111.329 81.7324 111.633 81.9904 111.828 81.4836C112.022 80.9798 111.665 80.8535 111.346 80.7861L111.346 80.786Z"   fill="#168C3E" >
</path>
<path d="M77.349 14.4426C78.4175 14.476 79.7409 13.7171 79.8235 13.041C79.9073 12.3569 78.9331 11.577 77.7122 11.3493C77.6797 11.3433 77.6505 11.3193 77.6178 11.313C77.0791 11.2088 76.8385 11.5716 77.0465 11.9391C77.5909 12.9002 77.031 13.5282 76.3894 14.2991C76.821 14.3659 77.0841 14.4344 77.3491 14.4426L77.349 14.4426Z"   fill="#168C3E" >
</path>
<path d="M109.237 85.5394C108.583 85.186 107.929 84.8291 107.256 84.5126C106.499 84.1559 105.566 83.9168 106.49 82.8095C106.64 82.6296 106.618 82.4448 106.386 82.3041C106.223 82.2055 106.082 82.1363 105.97 82.3419C105.404 83.3808 104.845 84.4227 104.32 85.395C104.258 85.725 104.402 85.8851 104.599 85.944C104.924 86.0414 105.009 85.6999 105.059 85.5347C105.347 84.566 105.864 84.6825 106.565 85.1041C107.29 85.5394 108.067 85.8877 108.824 86.2676C109.117 86.4145 109.42 86.6689 109.657 86.1687C109.88 85.6985 109.476 85.6686 109.237 85.5393L109.237 85.5394Z"   fill="#168C3E" >
</path>
<path d="M81.3179 25.3918C81.9273 25.5605 82.4696 25.4325 82.9191 25.0058C83.3646 24.5827 83.4359 24.0929 83.1176 23.5367C82.5908 22.6163 81.751 22.193 80.4242 21.848C81.1005 22.9835 81.1378 23.9434 81.0378 24.9229C81.0176 25.122 81.0603 25.3204 81.318 25.3918L81.3179 25.3918Z"   fill="#168C3E" >
</path>
<path d="M86.9631 102.466C86.8282 102.23 86.6241 102.337 86.4304 102.428C86.1338 102.569 86.1542 102.731 86.3032 102.992C86.9941 104.199 87.6653 105.417 88.3391 106.634C88.4611 106.854 88.5766 107.071 88.8772 106.901C89.0461 106.806 89.2744 106.739 89.1764 106.378C88.4671 105.121 87.7222 103.789 86.9631 102.466Z"   fill="#168C3E" >
</path>
<path d="M107.325 89.0636C106.223 88.3949 105.129 87.7144 104.029 87.043C103.762 86.8802 103.494 86.7061 103.27 87.1262C103.081 87.4823 103.305 87.5998 103.555 87.7508C104.687 88.436 105.812 89.1327 106.939 89.8242C107.054 89.8944 107.173 89.9573 107.256 90.0043C107.523 90.0285 107.595 89.837 107.655 89.7031C107.799 89.3779 107.576 89.2161 107.325 89.0636Z"   fill="#168C3E" >
</path>
<path d="M40.2584 100.732C39.95 100.572 39.8277 100.815 39.7007 101.008C38.9944 102.085 38.2918 103.165 37.5941 104.247C37.4395 104.487 37.1714 104.709 37.6303 104.975C38.0677 105.228 38.1807 104.896 38.3331 104.668C39.0115 103.654 39.6712 102.627 40.3354 101.603C40.4276 101.461 40.5078 101.311 40.5916 101.168C40.6448 100.893 40.435 100.824 40.2584 100.732Z"   fill="#168C3E" >
</path>
<path d="M53.2076 106.336C52.853 106.233 52.6773 106.4 52.5988 106.684C52.2467 107.96 51.9135 109.24 51.5414 110.639C51.517 110.789 51.459 111.043 51.8755 111.106C52.2434 111.161 52.3304 110.999 52.4122 110.689C52.7406 109.443 53.0948 108.205 53.4475 106.967C53.5276 106.686 53.6033 106.451 53.2075 106.336L53.2076 106.336Z"   fill="#168C3E" >
</path>
<path d="M24.2066 83.3704C24.081 83.1683 23.899 83.0851 23.6878 83.1872C22.3717 83.8239 21.0597 84.4692 19.7488 85.1168C19.5247 85.2275 19.4984 85.4266 19.5848 85.6392C19.647 85.7925 19.717 85.9535 19.919 85.9537C19.9602 85.9408 19.9947 85.9346 20.0249 85.9198C21.393 85.2482 22.7635 84.5815 24.1255 83.8978C24.3467 83.7867 24.3322 83.5727 24.2066 83.3705L24.2066 83.3704Z"   fill="#168C3E" >
</path>
<path d="M21.1717 30.5102C22.0523 30.6274 22.2725 30.0378 22.4127 29.4912C22.5378 29.004 22.1225 28.7702 21.7106 28.6749C21.3217 28.5849 19.5822 29.3545 19.6442 29.5636C19.8798 30.357 20.7439 30.1682 21.1717 30.5102Z"   fill="#168C3E" >
</path>
<path d="M44.6282 69.4954C45.0621 69.8685 45.4555 70.0241 46.0824 69.9354C48.4131 69.6059 50.7575 69.4412 53.1209 69.6076C56.2895 69.8306 59.4121 70.307 62.4861 71.104C62.8175 71.1899 63.1312 71.2445 63.4715 71.0794C67.1564 69.2916 70.26 66.8146 71.9663 63.0266C75.2358 55.7692 74.3964 48.9247 69.2862 42.7744C65.6538 38.4025 60.9893 35.8904 55.1987 35.8559C50.9582 35.8306 47.2722 37.423 44.1453 40.1989C39.9925 43.8857 37.4967 48.425 37.4944 53.3323C37.8361 61.5195 39.4806 65.0681 44.6281 69.4955L44.6282 69.4954Z"   fill="#168C3E" >
</path>
<path d="M50.4758 88.6005C50.0243 88.8033 49.8364 89.3159 49.9924 89.8312C50.2321 90.6227 50.8562 90.6986 51.5536 90.5979C51.6512 90.5838 51.7524 90.596 52.0035 90.596C51.7252 91.1583 51.4722 91.3387 50.9843 91.0682C50.7271 90.9256 50.2839 90.8499 50.2011 91.1628C50.1038 91.5308 50.5009 91.7376 50.8513 91.7899C51.5438 91.8933 52.2295 91.8997 52.6685 91.2091C53.0556 90.6001 52.9415 89.2573 52.4649 88.8043C51.861 88.2305 51.1316 88.3061 50.4757 88.6006L50.4758 88.6005ZM51.4246 90.0246C51.121 90.0283 50.9181 89.8251 50.9578 89.4905C50.9927 89.196 51.2032 89.1046 51.473 89.1365C51.7401 89.168 51.8922 89.3228 51.9205 89.5717C51.8814 89.8845 51.653 90.0219 51.4246 90.0247L51.4246 90.0246Z"   fill="#168C3E" >
</path>
<path d="M59.4435 88.6562C58.8252 88.2808 58.129 88.2588 57.5349 88.6916C57.1302 88.9863 57.0233 89.45 57.219 89.9688C57.4902 90.6879 58.0595 90.6491 58.652 90.6047C58.7738 90.5956 58.8977 90.6173 59.0664 90.6276C58.7041 91.8448 57.7751 90.536 57.3086 91.1083C57.2738 91.2906 57.3802 91.4236 57.5122 91.533C58.1089 92.0278 59.2614 91.9218 59.7117 91.3354C60.2915 90.5807 60.1693 89.0968 59.4435 88.6562ZM58.5154 90.0152C58.245 90.0079 58.0872 89.8445 58.0899 89.5525C58.0928 89.2537 58.2603 89.1336 58.5306 89.1151C58.8225 89.0948 59.0057 89.2389 59.0185 89.5119C59.0335 89.8316 58.8342 90.0239 58.5154 90.0152Z"   fill="#168C3E" >
</path>
<path d="M55.7838 88.5195C55.0959 88.2445 54.774 88.8788 54.4034 89.3037C54.1798 89.5601 53.9408 89.8091 53.7568 90.0927C53.3325 90.7466 53.5381 91.1128 54.3167 91.1701C54.5993 91.1908 55.025 91.0124 55.1113 91.4117C55.2249 91.937 55.6571 91.9356 55.8606 91.7737C56.1587 91.5366 56.2996 91.1015 56.4881 90.7834C56.4057 90.3726 55.9938 90.2291 56.0157 89.7738C56.0353 89.3664 56.3595 88.7497 55.7838 88.5196L55.7838 88.5195ZM54.9147 90.4081C54.7865 90.4531 54.4785 90.3685 54.4696 90.3104C54.4016 89.8631 54.73 89.6761 55.1523 89.4453C55.2082 89.8776 55.3684 90.249 54.9147 90.4081Z"   fill="#168C3E" >
</path>
<path d="M48.0841 88.3939C47.5909 88.5721 47.3273 89.1274 46.8085 89.3195C46.7713 89.3333 46.7936 89.6689 46.8211 89.6739C47.9129 89.8721 47.4958 90.7299 47.5479 91.359C47.5768 91.7081 47.6986 91.8326 48.0419 91.8302C48.384 91.8278 48.546 91.707 48.5342 91.3521C48.5208 90.943 48.5311 90.533 48.5311 90.1234L48.5407 90.1234C48.5407 89.7138 48.5389 89.3042 48.5413 88.8945C48.5432 88.5791 48.4145 88.2746 48.0841 88.3939Z"   fill="#168C3E" >
</path>
</g>
<defs>
<clipPath id="clip-path-JVIt_rVUeiC9rdjFhqAyF">
<path d="M-5.85938e-07 126.784L126.894 126.784L126.894 9.32617e-06L-5.85938e-07 9.32617e-06L-5.85938e-07 126.784Z" fill="white"/>
</clipPath>
</defs>
</svg>
